<?xml version="1.0" standalone="no"?>
<!DOCTYPE svg PUBLIC "-//W3C//DTD SVG 20010904//EN"
 "http://www.w3.org/TR/2001/REC-SVG-20010904/DTD/svg10.dtd">
<svg version="1.0" xmlns="http://www.w3.org/2000/svg"
 width="743.000000pt" height="743.000000pt" viewBox="0 0 743.000000 743.000000"
 preserveAspectRatio="xMidYMid meet">
<metadata>
Created by potrace 1.14, written by Peter Selinger 2001-2017
</metadata>
<g transform="translate(0.000000,743.000000) scale(0.100000,-0.100000)"
fill="#000000" stroke="none">
<path d="M1860 7373 c-252 -18 -495 -84 -725 -196 -617 -301 -1040 -904 -1114
-1589 -7 -65 -11 -699 -11 -1887 0 -1962 -2 -1896 60 -2142 92 -370 276 -687
551 -954 171 -165 318 -268 532 -370 186 -88 381 -148 582 -177 133 -19 3831
-19 3955 0 362 56 703 206 980 429 89 72 257 243 321 328 226 295 368 651 408
1017 15 134 15 3596 0 3739 -47 469 -248 890 -583 1225 -341 340 -769 537
-1246 574 -113 9 -3594 12 -3710 3z m1590 -1190 c46 -17 105 -55 128 -83 67
-80 130 -308 217 -785 47 -258 134 -848 155 -1055 14 -137 20 -168 30 -149 11
20 56 148 180 509 184 538 218 634 254 726 19 49 60 154 91 234 106 273 150
341 256 394 41 20 67 26 118 26 85 -1 134 -23 192 -88 128 -142 105 -339 -149
-1257 -86 -309 -219 -763 -266 -909 -20 -60 -36 -113 -36 -116 0 -4 39 -31 86
-60 199 -121 358 -322 414 -522 38 -136 20 -329 -45 -484 -53 -126 -249 -353
-430 -496 -55 -43 -105 -83 -112 -88 -31 -25 -234 -155 -292 -187 -231 -130
-501 -202 -711 -190 -293 16 -584 170 -779 412 -97 120 -131 181 -196 356
-110 298 -168 648 -169 1029 -1 191 1 210 23 279 14 41 38 92 55 115 41 54
123 96 188 96 44 0 48 2 54 28 45 206 152 327 306 348 49 7 138 -9 182 -31 16
-9 31 -13 34 -10 3 2 -5 85 -17 182 -12 98 -37 306 -56 463 -20 157 -44 353
-55 435 -33 251 -42 377 -38 522 3 133 4 141 36 205 35 71 89 125 153 152 46
20 143 20 199 -1z"/>
</g>
</svg>
