<?xml version="1.0" standalone="no"?>
<!DOCTYPE svg PUBLIC "-//W3C//DTD SVG 20010904//EN"
 "http://www.w3.org/TR/2001/REC-SVG-20010904/DTD/svg10.dtd">
<svg version="1.0" xmlns="http://www.w3.org/2000/svg"
 width="225.000000pt" height="225.000000pt" viewBox="0 0 225.000000 225.000000"
 preserveAspectRatio="xMidYMid meet">
<metadata>
Created by potrace 1.14, written by Peter Selinger 2001-2017
</metadata>
<g transform="translate(0.000000,225.000000) scale(0.100000,-0.100000)"
fill="#000000" stroke="none">
<path d="M1512 2190 c-18 -11 -41 -34 -51 -51 -22 -35 -66 -232 -57 -255 3 -8
2 -13 -2 -10 -5 3 -28 -88 -52 -202 -58 -282 -82 -355 -121 -380 l-32 -20 -24
22 c-35 30 -59 81 -118 249 -28 81 -55 144 -60 140 -4 -5 -5 -3 -2 3 7 12
-100 340 -128 393 -18 37 -57 68 -95 76 -34 8 -100 -9 -130 -33 -30 -24 -43
-92 -30 -161 14 -81 112 -381 122 -375 4 3 5 -1 2 -9 -3 -8 20 -83 51 -167 31
-85 53 -160 50 -168 -3 -9 -12 -11 -26 -7 -16 6 -20 4 -14 -6 5 -8 4 -11 -1
-6 -5 5 -9 14 -9 20 0 7 -18 18 -41 26 -35 12 -46 12 -85 0 -25 -9 -43 -20
-41 -28 1 -7 -2 -10 -8 -6 -17 11 -43 -64 -36 -107 7 -45 26 -89 36 -83 3 2 4
-9 2 -26 -5 -34 -26 -37 -62 -9 -31 24 -97 26 -128 4 -56 -39 -66 -112 -27
-204 14 -33 25 -65 25 -72 0 -13 22 -87 92 -310 39 -124 89 -225 107 -213 5 3
13 0 17 -6 4 -8 3 -9 -4 -5 -21 13 -13 -10 11 -32 26 -24 42 -29 31 -9 -4 7
-3 9 2 4 5 -5 9 -14 9 -19 0 -21 94 -69 176 -90 72 -18 102 -20 214 -15 88 4
154 12 204 27 89 25 183 68 176 80 -3 5 0 12 6 16 8 4 9 3 5 -4 -4 -7 -2 -12
3 -12 20 0 148 134 170 179 60 116 70 386 19 488 -6 12 -15 20 -19 17 -4 -2
-11 1 -15 7 -4 8 -3 9 4 5 7 -4 12 -3 12 2 0 14 -27 34 -32 25 -3 -4 -4 -3 -2
3 4 18 -52 67 -67 59 -7 -5 -10 -4 -5 3 3 6 -3 13 -14 17 -14 4 -19 13 -16 23
3 9 8 33 11 52 6 38 40 190 104 470 94 416 115 596 76 654 -37 55 -124 72
-183 36z m-95 -492 c-3 -8 -6 -5 -6 6 -1 11 2 17 5 13 3 -3 4 -12 1 -19z
m-577 -814 c0 -8 -19 -13 -24 -6 -3 5 1 9 9 9 8 0 15 -2 15 -3z m-373 -186
c-3 -8 -6 -5 -6 6 -1 11 2 17 5 13 3 -3 4 -12 1 -19z m844 -25 c13 -16 12 -17
-3 -4 -17 13 -22 21 -14 21 2 0 10 -8 17 -17z m-436 -3 c3 -6 -1 -7 -9 -4 -18
7 -21 14 -7 14 6 0 13 -4 16 -10z"/>
</g>
</svg>
